<svg width="180" height="180" viewBox="0 0 180 180" fill="none" xmlns="http://www.w3.org/2000/svg">
<g clip-path="url(#clip0_1281_673)">
<mask id="mask0_1281_673" style="mask-type:luminance" maskUnits="userSpaceOnUse" x="0" y="0" width="180" height="180">
<path d="M180 0H0V180H180V0Z" fill="white"/>
</mask>
<g mask="url(#mask0_1281_673)">
<path d="M90 0C139.705 0 180 40.2945 180 90C180 139.705 139.705 180 90 180C40.2945 180 0 139.705 0 90C0 40.2945 40.2945 0 90 0Z" fill="black"/>
<path d="M53.1758 131.25V103.875L66.8258 90.15L53.1758 76.65V50.25H74.4008V67.725L86.2508 79.65H97.5008L109.351 67.725V50.25H130.576V76.65L117.001 90.15L130.576 103.875V131.25H109.351V112.725L97.5008 100.875H86.2508L74.4008 112.725V131.25H53.1758ZM63.9758 120.6H63.9008V108.9L81.9008 90.3H101.851L119.851 108.9V120.6H119.776V108.9L101.851 90.3L119.851 72.3V60.75H119.926V72.3L101.851 90.375H81.9008L63.9008 72.3V60.75H63.9758V72.3L81.9008 90.3L63.9758 108.9V120.6Z" fill="#08CA08"/>
</g>
</g>
<defs>
<clipPath id="clip0_1281_673">
<rect width="180" height="180" fill="white"/>
</clipPath>
</defs>
</svg>
