<svg width="32" height="32" viewBox="0 0 32 32" fill="none" xmlns="http://www.w3.org/2000/svg">
<g clip-path="url(#clip0_1281_659)">
<mask id="mask0_1281_659" style="mask-type:luminance" maskUnits="userSpaceOnUse" x="0" y="0" width="32" height="32">
<path d="M32 0H0V32H32V0Z" fill="white"/>
</mask>
<g mask="url(#mask0_1281_659)">
<path d="M16 0C24.8365 0 32 7.16347 32 16C32 24.8365 24.8365 32 16 32C7.16347 32 0 24.8365 0 16C0 7.16347 7.16347 0 16 0Z" fill="black"/>
<path d="M9.45312 23.3336V18.4669L11.8798 16.0269L9.45312 13.6269V8.93359H13.2265V12.0403L15.3331 14.1603H17.3331L19.4398 12.0403V8.93359H23.2131V13.6269L20.7998 16.0269L23.2131 18.4669V23.3336H19.4398V20.0403L17.3331 17.9336H15.3331L13.2265 20.0403V23.3336H9.45312ZM11.3731 21.4403H11.3598V19.3603L14.5598 16.0536H18.1065L21.3065 19.3603V21.4403H21.2931V19.3603L18.1065 16.0536L21.3065 12.8536V10.8003H21.3198V12.8536L18.1065 16.0669H14.5598L11.3598 12.8536V10.8003H11.3731V12.8536L14.5598 16.0536L11.3731 19.3603V21.4403Z" fill="#08CA08"/>
</g>
</g>
<defs>
<clipPath id="clip0_1281_659">
<rect width="32" height="32" fill="white"/>
</clipPath>
</defs>
</svg>
