<svg width="16" height="16" viewBox="0 0 16 16" fill="none" xmlns="http://www.w3.org/2000/svg">
<g clip-path="url(#clip0_1281_666)">
<mask id="mask0_1281_666" style="mask-type:luminance" maskUnits="userSpaceOnUse" x="0" y="0" width="16" height="16">
<path d="M16 0H0V16H16V0Z" fill="white"/>
</mask>
<g mask="url(#mask0_1281_666)">
<path d="M8 0C12.4183 0 16 3.58173 16 8C16 12.4183 12.4183 16 8 16C3.58173 16 0 12.4183 0 8C0 3.58173 3.58173 0 8 0Z" fill="black"/>
<path d="M4.72656 11.6648V9.23151L5.9399 8.01151L4.72656 6.81151V4.46484H6.61323V6.01818L7.66656 7.07818H8.66656L9.7199 6.01818V4.46484H11.6066V6.81151L10.3999 8.01151L11.6066 9.23151V11.6648H9.7199V10.0182L8.66656 8.96484H7.66656L6.61323 10.0182V11.6648H4.72656ZM5.68656 10.7182H5.6799V9.67818L7.2799 8.02484H9.05323L10.6532 9.67818V10.7182H10.6466V9.67818L9.05323 8.02484L10.6532 6.42484V5.39818H10.6599V6.42484L9.05323 8.03151H7.2799L5.6799 6.42484V5.39818H5.68656V6.42484L7.2799 8.02484L5.68656 9.67818V10.7182Z" fill="#08CA08"/>
</g>
</g>
<defs>
<clipPath id="clip0_1281_666">
<rect width="16" height="16" fill="white"/>
</clipPath>
</defs>
</svg>
